<svg xmlns="http://www.w3.org/2000/svg" viewBox="0 0 3753 808" width="3753" height="808" role="img" aria-label="BLOKD"><g transform="translate(-2,754) scale(1,-1)" fill="#121212"><path transform="translate(0,0)" d="M158 700H331Q404 700 461.5 682.5Q519 665 552.0 627.5Q585 590 585 529Q585 483 567.5 451.0Q550 419 522.0 402.0Q494 385 463 381Q513 377 553.5 353.0Q594 329 617.0 289.0Q640 249 640 195Q640 131 605.0 87.5Q570 44 506.5 22.0Q443 0 359 0H260Q260 0 260.5 11.5Q261 23 261.0 34.0Q261 45 261 45H315Q360 45 394.5 62.0Q429 79 448.5 115.0Q468 151 468 207Q468 251 454.5 282.0Q441 313 418.5 332.5Q396 352 366.0 361.0Q336 370 303 370V379Q326 379 348.0 386.5Q370 394 387.5 410.0Q405 426 415.0 452.5Q425 479 425 516Q425 567 409.5 598.0Q394 629 365.0 643.0Q336 657 298 657H168Q168 658 165.5 668.5Q163 679 160.5 689.5Q158 700 158 700ZM269 700V0H119V700ZM122 73V0H42V10Q44 10 49.0 10.0Q54 10 55 10Q81 10 99.5 28.5Q118 47 119 73ZM122 627H119Q118 653 99.5 671.5Q81 690 55 690Q54 690 49.0 690.0Q44 690 42 690V700H122Z"/><path transform="translate(674,0)" d="M269 700V0H119V700ZM533 43 557 0H266V43ZM606 205 560 0H364L400 43Q450 43 488.0 62.5Q526 82 553.0 118.5Q580 155 596 205ZM122 73V0H42V10Q42 10 48.5 10.0Q55 10 55 10Q81 10 99.5 28.5Q118 47 119 73ZM122 627H119Q118 653 99.5 671.5Q81 690 55 690Q55 690 48.5 690.0Q42 690 42 690V700H122ZM266 627V700H346V690Q345 690 339.0 690.0Q333 690 333 690Q307 690 288.5 671.5Q270 653 269 627Z"/><path transform="translate(1291,0)" d="M442 714Q562 714 650.5 669.5Q739 625 787.5 544.0Q836 463 836 350Q836 238 787.5 156.5Q739 75 650.5 30.5Q562 -14 442 -14Q322 -14 233.5 30.5Q145 75 97.0 156.0Q49 237 49 350Q49 462 97.0 543.5Q145 625 233.5 669.5Q322 714 442 714ZM442 28Q513 28 564.0 67.5Q615 107 643.0 179.0Q671 251 671 350Q671 449 643.0 521.0Q615 593 564.0 632.5Q513 672 442 672Q372 672 320.5 632.5Q269 593 241.0 521.0Q213 449 213 350Q213 251 241.0 179.0Q269 107 320.5 67.5Q372 28 442 28Z"/><path transform="translate(2170,0)" d="M413 431 675 72Q698 42 722.0 26.5Q746 11 777 10V0H695Q684 0 658.5 1.0Q633 2 601.0 9.0Q569 16 536.5 33.5Q504 51 480 83Q475 90 460.0 110.0Q445 130 425.0 158.0Q405 186 383.5 215.5Q362 245 343.0 271.0Q324 297 312.5 313.5Q301 330 301 330ZM664 693 363 336 301 330 576 693ZM734 700V691H730Q697 691 668.5 677.5Q640 664 620 642L539 644Q551 661 543.0 676.0Q535 691 515 691H505V700H730ZM269 700V0H119V700ZM122 73V0H42V10Q43 10 48.5 10.0Q54 10 55 10Q81 10 99.5 28.5Q118 47 119 73ZM122 627H119Q118 653 99.5 671.5Q81 690 55 690Q54 690 48.5 690.0Q43 690 42 690V700H122ZM266 73H269Q270 47 288.5 28.5Q307 10 333 10Q334 10 339.5 10.0Q345 10 346 10V0H266ZM266 627V700H346V690Q345 690 339.5 690.0Q334 690 333 690Q307 690 288.5 671.5Q270 653 269 627Z"/><path transform="translate(2927,0)" d="M405 700Q523 700 609.0 657.5Q695 615 741.5 536.5Q788 458 788 350Q788 242 741.5 163.5Q695 85 609.0 42.5Q523 0 405 0H167L166 42Q195 42 226.5 42.0Q258 42 288.0 42.0Q318 42 341.5 42.0Q365 42 379.0 42.0Q393 42 393 42Q465 42 517.0 79.5Q569 117 597.0 186.0Q625 255 625 350Q625 445 597.0 514.0Q569 583 517.0 620.5Q465 658 393 658Q393 658 378.5 658.0Q364 658 339.0 658.0Q314 658 283.0 658.0Q252 658 219.0 658.0Q186 658 156 658V700ZM269 700V0H119V700ZM122 73V0H42V10Q42 10 48.5 10.0Q55 10 55 10Q81 10 99.5 28.5Q118 47 119 73ZM122 627H119Q119 653 100.0 671.5Q81 690 55 690Q55 690 49.0 690.0Q43 690 43 690L42 700H122Z"/></g></svg>